<svg width="24" height="24" viewBox="0 0 24 24" fill="none" xmlns="http://www.w3.org/2000/svg">
<mask id="mask0_3312_53324" style="mask-type:luminance" maskUnits="userSpaceOnUse" x="0" y="0" width="24" height="24">
<path d="M0 0H24V24H0V0Z" fill="white"/>
</mask>
<g mask="url(#mask0_3312_53324)">
<path d="M21.1776 6.01605L15.4133 0.251786C15.2526 0.0910715 15.0357 0 14.808 0H3.42941C2.9553 0 2.57227 0.383036 2.57227 0.857145V23.1429C2.57227 23.617 2.9553 24 3.42941 24H20.5723C21.0464 24 21.4294 23.617 21.4294 23.1429V6.6241C21.4294 6.39645 21.3383 6.1768 21.1776 6.01605ZM19.4526 7.01785H14.4116V1.97678L19.4526 7.01785ZM19.5008 22.0714H4.50084V1.92857H12.5901V7.7143C12.5901 8.02495 12.7 8.2901 12.9196 8.5098C13.1393 8.72945 13.4045 8.8393 13.7151 8.8393H19.5008V22.0714ZM11.7866 14.8393H6.85798C6.74012 14.8393 6.6437 14.9357 6.6437 15.0535V16.3393C6.6437 16.4571 6.74012 16.5536 6.85798 16.5536H11.7866C11.9044 16.5536 12.0008 16.4571 12.0008 16.3393V15.0535C12.0008 14.9357 11.9044 14.8393 11.7866 14.8393ZM6.6437 11.4107V12.6965C6.6437 12.8143 6.74012 12.9107 6.85798 12.9107H17.1437C17.2616 12.9107 17.358 12.8143 17.358 12.6965V11.4107C17.358 11.2928 17.2616 11.1965 17.1437 11.1965H6.85798C6.74012 11.1965 6.6437 11.2928 6.6437 11.4107Z" fill="#5856D6"/>
</g>
</svg>
