<svg width="14" height="18" viewBox="0 0 14 18" fill="none" xmlns="http://www.w3.org/2000/svg">
<path d="M13.875 7.65039V15.2578C13.875 15.9481 13.6309 16.5374 13.1428 17.0256C12.6546 17.5137 12.0653 17.7578 11.375 17.7578H2.625C1.93464 17.7578 1.34539 17.5137 0.857232 17.0256C0.369077 16.5374 0.125 15.9481 0.125 15.2578V2.75781C0.125 2.06746 0.369078 1.4782 0.857233 0.990045C1.34539 0.50189 1.93464 0.257812 2.625 0.257812H6.48242C6.73104 0.25785 6.97017 0.305429 7.1998 0.400551C7.42943 0.495674 7.63214 0.631102 7.80791 0.806836L13.3259 6.32485C13.5017 6.50066 13.6372 6.70338 13.7323 6.93301C13.8274 7.16265 13.8749 7.40184 13.875 7.65039ZM12.625 7.65049C12.625 7.56763 12.6091 7.48793 12.5774 7.41139C12.5457 7.33485 12.5006 7.2673 12.442 7.20874L6.92412 1.69082C6.86553 1.63224 6.79797 1.5871 6.72142 1.55539C6.64487 1.52369 6.56521 1.50783 6.48242 1.50781H2.625C2.27982 1.50781 1.98519 1.62985 1.74112 1.87393C1.49704 2.118 1.375 2.41263 1.375 2.75781V15.2578C1.375 15.603 1.49704 15.8976 1.74112 16.1417C1.98519 16.3858 2.27982 16.5078 2.625 16.5078H11.375C11.7202 16.5078 12.0148 16.3858 12.2589 16.1417C12.503 15.8976 12.625 15.603 12.625 15.2578V7.65049Z" fill="#606060"/>
<path fill-rule="evenodd" clip-rule="evenodd" d="M7 0.570312C6.65482 0.570312 6.375 0.850138 6.375 1.19531V5.88281C6.375 6.40058 6.55806 6.84252 6.92417 7.20864C7.29029 7.57476 7.73223 7.75781 8.25 7.75781H12.9375C13.2827 7.75781 13.5625 7.47798 13.5625 7.13281C13.5625 6.78764 13.2827 6.50781 12.9375 6.50781H8.25C8.07741 6.50781 7.9301 6.44679 7.80806 6.32475C7.68602 6.20271 7.625 6.0554 7.625 5.88281V1.19531C7.625 0.850138 7.34518 0.570312 7 0.570312ZM3.25 10.2578C3.25 10.603 3.52983 10.8828 3.875 10.8828H10.125C10.4702 10.8828 10.75 10.603 10.75 10.2578C10.75 9.91264 10.4702 9.63281 10.125 9.63281H3.875C3.52983 9.63281 3.25 9.91264 3.25 10.2578ZM3.25 13.3828C3.25 13.728 3.52983 14.0078 3.875 14.0078H10.125C10.4702 14.0078 10.75 13.728 10.75 13.3828C10.75 13.0376 10.4702 12.7578 10.125 12.7578H3.875C3.52983 12.7578 3.25 13.0376 3.25 13.3828Z" fill="#606060"/>
</svg>
